<svg width="53" height="33" viewBox="0 0 53 33" fill="none" xmlns="http://www.w3.org/2000/svg">
<path fill-rule="evenodd" clip-rule="evenodd" d="M21.4818 8.6416C21.4818 10.8507 19.691 12.6416 17.4818 12.6416C15.2727 12.6416 13.4818 10.8507 13.4818 8.6416C13.4818 6.43246 15.2727 4.6416 17.4818 4.6416C19.691 4.6416 21.4818 6.43246 21.4818 8.6416ZM14.5654 24.7587L33.7987 5.52543L37.1928 8.91954L17.9595 28.1528L14.5654 24.7587ZM35.8819 28.6416C38.091 28.6416 39.8819 26.8508 39.8819 24.6416C39.8819 22.4325 38.091 20.6416 35.8819 20.6416C33.6728 20.6416 31.8819 22.4325 31.8819 24.6416C31.8819 26.8508 33.6728 28.6416 35.8819 28.6416Z" fill="url(#paint0_linear_10191_144484)"/>
<defs>
<linearGradient id="paint0_linear_10191_144484" x1="44.7445" y1="28.6949" x2="16.713" y2="38.5653" gradientUnits="userSpaceOnUse">
<stop stop-color="#957529"/>
<stop offset="1"/>
</linearGradient>
</defs>
</svg>
