<svg width="96" height="96" viewBox="0 0 96 96" fill="none" xmlns="http://www.w3.org/2000/svg">
<path d="M80.7264 77.0688H15.3792V80.88H12.4128V86.4H83.4816V80.88H80.7264V77.0688Z" fill="#F4F4F6"/>
<path d="M47.9424 9.59998L12.5184 26.1504V31.6608H15.3792V35.4816H80.7264V31.6608H83.5872V26.1504L47.9424 9.59998Z" fill="#F4F4F6"/>
<path d="M18.2112 69.216V75.5808H33.9072V69.216H31.152V41.424H33.9072V37.8144H31.152H20.9664H18.2112V41.424H20.9664V69.216H18.2112Z" fill="#F4F4F6"/>
<path d="M40.0992 69.216V75.5808H55.7952V69.216H53.04V41.424H55.7952V37.8144H53.04H42.8544H40.0992V41.424H42.8544V69.216H40.0992Z" fill="#F4F4F6"/>
<path d="M62.16 69.216V75.5808H77.8656V69.216H75.1008V41.424H77.8656V37.8144H75.1008H64.9152H62.16V41.424H64.9152V69.216H62.16Z" fill="#F4F4F6"/>
</svg>
