<svg width="96" height="96" viewBox="0 0 96 96" fill="none" xmlns="http://www.w3.org/2000/svg">
<path d="M41.1552 50.7648C44.0448 50.7648 46.3968 48.4128 46.3968 45.5232C46.3968 42.6336 44.0448 40.2816 41.1552 40.2816C38.2656 40.2816 35.9136 42.6336 35.9136 45.5232C35.9136 48.4128 38.2656 50.7648 41.1552 50.7648Z" fill="#F4F4F6"/>
<path d="M81.6001 13.9775H14.4001C11.7505 13.9775 9.6001 16.1279 9.6001 18.7775V72.2591C9.6001 74.9087 11.7505 77.0591 14.4001 77.0591H19.6033L20.9377 82.0127H28.9825L30.3169 77.0591H65.6833L67.0177 82.0127H75.0625L76.3969 77.0591H81.6001C84.2497 77.0591 86.4001 74.9087 86.4001 72.2591V18.7775C86.4001 16.1279 84.2497 13.9775 81.6001 13.9775ZM15.1969 34.8287H18.3937V55.8527H15.1969V34.8287ZM80.8033 69.8591C80.8033 70.7423 80.0833 71.4623 79.2001 71.4623H16.8001C15.9169 71.4623 15.1969 70.7423 15.1969 69.8591V61.8815H18.3937V68.2655H77.5969V22.7807H18.4033V28.7999H15.2065V21.1775C15.2065 20.2943 15.9265 19.5743 16.8097 19.5743H79.2097C80.0929 19.5743 80.8129 20.2943 80.8129 21.1775V69.8591H80.8033ZM31.8529 38.1791C31.3153 37.6415 31.3153 36.7583 31.8529 36.2207C32.3905 35.6831 33.2737 35.6831 33.8113 36.2207L36.2689 38.6783C37.2865 37.9487 38.4769 37.4495 39.7633 37.2383V33.7535C39.7633 32.9855 40.3873 32.3711 41.1457 32.3711C41.9041 32.3711 42.5281 32.9951 42.5281 33.7535V37.2383C43.8145 37.4495 45.0049 37.9487 46.0225 38.6783L48.4801 36.2207C49.0177 35.6831 49.9009 35.6831 50.4385 36.2207C50.9761 36.7583 50.9761 37.6415 50.4385 38.1791L47.9809 40.6367C48.7105 41.6543 49.2097 42.8447 49.4209 44.1311H52.9057C53.6737 44.1311 54.2881 44.7551 54.2881 45.5135C54.2881 46.2719 53.6641 46.8959 52.9057 46.8959H49.4209C49.2097 48.1823 48.7105 49.3727 47.9809 50.3903L50.4385 52.8479C50.9761 53.3855 50.9761 54.2687 50.4385 54.8063C49.9009 55.3439 49.0177 55.3439 48.4801 54.8063L46.0225 52.3487C45.0049 53.0783 43.8145 53.5775 42.5281 53.7887V57.2735C42.5281 58.0415 41.9041 58.6559 41.1457 58.6559C40.3873 58.6559 39.7633 58.0319 39.7633 57.2735V53.7887C38.4769 53.5775 37.2865 53.0783 36.2689 52.3487L33.8113 54.8063C33.2737 55.3439 32.3905 55.3439 31.8529 54.8063C31.3153 54.2687 31.3153 53.3855 31.8529 52.8479L34.3105 50.3903C33.5809 49.3727 33.0817 48.1823 32.8705 46.8959H29.3857C28.6177 46.8959 28.0033 46.2719 28.0033 45.5135C28.0033 44.7551 28.6273 44.1311 29.3857 44.1311H32.8705C33.0817 42.8447 33.5809 41.6543 34.3105 40.6367L31.8529 38.1791ZM64.0801 40.7423C64.0801 38.0255 66.2881 35.8175 69.0049 35.8175C71.7217 35.8175 73.9297 38.0255 73.9297 40.7423C73.9297 42.7199 72.7585 44.4095 71.0785 45.1967V53.1551C71.0785 54.2975 70.1473 55.2287 69.0049 55.2287C67.8625 55.2287 66.9313 54.2975 66.9313 53.1551V45.1967C65.2513 44.4095 64.0801 42.7199 64.0801 40.7423Z" fill="#F4F4F6"/>
</svg>
