<svg width="1728" height="658" viewBox="0 0 1728 658" fill="none" xmlns="http://www.w3.org/2000/svg">
<mask id="mask0_1709_8633" style="mask-type:alpha" maskUnits="userSpaceOnUse" x="0" y="0" width="1728" height="658">
<rect width="1728" height="658" fill="url(#paint0_linear_1709_8633)"/>
</mask>
<g mask="url(#mask0_1709_8633)">
<mask id="mask1_1709_8633" style="mask-type:alpha" maskUnits="userSpaceOnUse" x="0" y="-1" width="1729" height="683">
<path d="M0 31C0 13.3269 14.3269 -1 32 -1H1697C1714.67 -1 1729 13.3269 1729 31V650C1729 667.673 1714.67 682 1697 682H32.0001C14.3269 682 0 667.673 0 650V31Z" fill="url(#paint1_linear_1709_8633)"/>
</mask>
<g mask="url(#mask1_1709_8633)">
<rect x="433" y="-6" width="1" height="824" fill="#323542"/>
<rect x="484" y="-6" width="1" height="824" fill="#323542"/>
<rect x="534" y="-6" width="1" height="824" fill="#323542"/>
<rect x="585" y="-6" width="1" height="824" fill="#323542"/>
<rect x="637" y="-6" width="1" height="824" fill="#323542"/>
<rect x="687" y="-6" width="1" height="824" fill="#323542"/>
<rect x="738" y="-6" width="1" height="824" fill="#323542"/>
<rect x="788" y="-6" width="1" height="824" fill="#323542"/>
<rect x="839" y="-6" width="1" height="824" fill="#323542"/>
<rect x="890" y="-6" width="1" height="824" fill="#323542"/>
<rect x="890" y="-6" width="1" height="824" fill="#323542"/>
<rect x="940" y="-6" width="1" height="824" fill="#323542"/>
<rect x="1016" y="-6" width="1" height="824" fill="#323542"/>
<rect x="1093" y="-6" width="1" height="824" fill="#323542"/>
<rect x="1169" y="-6" width="1" height="824" fill="#323542"/>
<rect x="1245" y="-6" width="1" height="824" fill="#323542"/>
<rect x="458" y="-6" width="1" height="824" fill="#323542"/>
<rect x="509" y="-6" width="1" height="824" fill="#323542"/>
<rect x="560" y="-6" width="1" height="824" fill="#323542"/>
<rect x="610" y="-6" width="1" height="824" fill="#323542"/>
<rect x="662" y="-6" width="1" height="824" fill="#323542"/>
<rect x="712" y="-6" width="1" height="824" fill="#323542"/>
<rect x="763" y="-6" width="1" height="824" fill="#323542"/>
<rect x="814" y="-6" width="1" height="824" fill="#323542"/>
<rect x="864" y="-6" width="1" height="824" fill="#323542"/>
<rect x="915" y="-6" width="1" height="824" fill="#323542"/>
<rect x="991" y="-6" width="1" height="824" fill="#323542"/>
<rect x="1068" y="-6" width="1" height="824" fill="#323542"/>
<rect x="1144" y="-6" width="1" height="824" fill="#323542"/>
<rect x="1220" y="-6" width="1" height="824" fill="#323542"/>
<rect x="966" y="-6" width="1" height="824" fill="#323542"/>
<rect x="1041" y="-6" width="1" height="824" fill="#323542"/>
<rect x="1118" y="-6" width="1" height="824" fill="#323542"/>
<rect x="1194" y="-6" width="1" height="824" fill="#323542"/>
<rect x="1251" y="151" width="1.00004" height="824" transform="rotate(90 1251 151)" fill="#323542"/>
<rect x="1251" y="203" width="1.00004" height="824" transform="rotate(90 1251 203)" fill="#323542"/>
<rect x="1251" y="253" width="1.00004" height="824" transform="rotate(90 1251 253)" fill="#323542"/>
<rect x="1251" y="304" width="1.00004" height="824" transform="rotate(90 1251 304)" fill="#323542"/>
<rect x="1251" y="354" width="1.00004" height="824" transform="rotate(90 1251 354)" fill="#323542"/>
<rect x="1251" y="405" width="1.00004" height="824" transform="rotate(90 1251 405)" fill="#323542"/>
<rect x="1251" y="456" width="1.00004" height="824" transform="rotate(90 1251 456)" fill="#323542"/>
<rect x="1251" y="456" width="1.00004" height="824" transform="rotate(90 1251 456)" fill="#323542"/>
<rect x="1251" y="506" width="1.00004" height="824" transform="rotate(90 1251 506)" fill="#323542"/>
<rect x="1251" y="582" width="1.00004" height="824" transform="rotate(90 1251 582)" fill="#323542"/>
<rect x="1251" y="126" width="1.00004" height="824" transform="rotate(90 1251 126)" fill="#323542"/>
<rect x="1251" y="176" width="1.00004" height="824" transform="rotate(90 1251 176)" fill="#323542"/>
<rect x="1251" y="228" width="1.00004" height="824" transform="rotate(90 1251 228)" fill="#323542"/>
<rect x="1251" y="278" width="1.00004" height="824" transform="rotate(90 1251 278)" fill="#323542"/>
<rect x="1251" y="329" width="1.00004" height="824" transform="rotate(90 1251 329)" fill="#323542"/>
<rect x="1251" y="380" width="1.00004" height="824" transform="rotate(90 1251 380)" fill="#323542"/>
<rect x="1251" y="430" width="1.00004" height="824" transform="rotate(90 1251 430)" fill="#323542"/>
<rect x="1251" y="481" width="1.00004" height="824" transform="rotate(90 1251 481)" fill="#323542"/>
<rect x="1251" y="557" width="1.00004" height="824" transform="rotate(90 1251 557)" fill="#323542"/>
<rect x="1251" y="634" width="1.00004" height="824" transform="rotate(90 1251 634)" fill="#323542"/>
<rect x="1251" y="532" width="1.00004" height="824" transform="rotate(90 1251 532)" fill="#323542"/>
<rect x="1251" y="607" width="1.00004" height="824" transform="rotate(90 1251 607)" fill="#323542"/>
<rect x="1245" y="-6" width="1" height="824" fill="#323542"/>
<rect x="1296" y="-6" width="1" height="824" fill="#323542"/>
<rect x="1346" y="-6" width="1" height="824" fill="#323542"/>
<rect x="1397" y="-6" width="1" height="824" fill="#323542"/>
<rect x="1449" y="-6" width="1" height="824" fill="#323542"/>
<rect x="1499" y="-6" width="1" height="824" fill="#323542"/>
<rect x="1550" y="-6" width="1" height="824" fill="#323542"/>
<rect x="1600" y="-6" width="1" height="824" fill="#323542"/>
<rect x="1651" y="-6" width="1" height="824" fill="#323542"/>
<rect x="27" y="-6" width="1" height="824" fill="#323542"/>
<rect x="1702" y="-6" width="1" height="824" fill="#323542"/>
<rect x="78" y="-6" width="1" height="824" fill="#323542"/>
<rect x="1702" y="-6" width="1" height="824" fill="#323542"/>
<rect x="78" y="-6" width="1" height="824" fill="#323542"/>
<rect x="128" y="-6" width="1" height="824" fill="#323542"/>
<rect x="204" y="-6" width="1" height="824" fill="#323542"/>
<rect x="281" y="-6" width="1" height="824" fill="#323542"/>
<rect x="357" y="-6" width="1" height="824" fill="#323542"/>
<rect x="433" y="-6" width="1" height="824" fill="#323542"/>
<rect x="1270" y="-6" width="1" height="824" fill="#323542"/>
<rect x="1321" y="-6" width="1" height="824" fill="#323542"/>
<rect x="1372" y="-6" width="1" height="824" fill="#323542"/>
<rect x="1422" y="-6" width="1" height="824" fill="#323542"/>
<rect x="1474" y="-6" width="1" height="824" fill="#323542"/>
<rect x="1524" y="-6" width="1" height="824" fill="#323542"/>
<rect x="1575" y="-6" width="1" height="824" fill="#323542"/>
<rect x="1626" y="-6" width="1" height="824" fill="#323542"/>
<rect x="2" y="-6" width="1" height="824" fill="#323542"/>
<rect x="1676" y="-6" width="1" height="824" fill="#323542"/>
<rect x="52" y="-6" width="1" height="824" fill="#323542"/>
<rect x="1727" y="-6" width="1" height="824" fill="#323542"/>
<rect x="103" y="-6" width="1" height="824" fill="#323542"/>
<rect x="179" y="-6" width="1" height="824" fill="#323542"/>
<rect x="256" y="-6" width="1" height="824" fill="#323542"/>
<rect x="332" y="-6" width="1" height="824" fill="#323542"/>
<rect x="408" y="-6" width="1" height="824" fill="#323542"/>
<rect x="154" y="-6" width="1" height="824" fill="#323542"/>
<rect x="229" y="-6" width="1" height="824" fill="#323542"/>
<rect x="306" y="-6" width="1" height="824" fill="#323542"/>
<rect x="382" y="-6" width="1" height="824" fill="#323542"/>
<rect x="2063" y="151" width="1.00004" height="824" transform="rotate(90 2063 151)" fill="#323542"/>
<rect x="439" y="151" width="1.00004" height="824" transform="rotate(90 439 151)" fill="#323542"/>
<rect x="2063" y="203" width="1.00004" height="824" transform="rotate(90 2063 203)" fill="#323542"/>
<rect x="439" y="203" width="1.00004" height="824" transform="rotate(90 439 203)" fill="#323542"/>
<rect x="2063" y="253" width="1.00004" height="824" transform="rotate(90 2063 253)" fill="#323542"/>
<rect x="439" y="253" width="1.00004" height="824" transform="rotate(90 439 253)" fill="#323542"/>
<rect x="2063" y="304" width="1.00004" height="824" transform="rotate(90 2063 304)" fill="#323542"/>
<rect x="439" y="304" width="1.00004" height="824" transform="rotate(90 439 304)" fill="#323542"/>
<rect x="2063" y="354" width="1.00004" height="824" transform="rotate(90 2063 354)" fill="#323542"/>
<rect x="439" y="354" width="1.00004" height="824" transform="rotate(90 439 354)" fill="#323542"/>
<rect x="2063" y="405" width="1.00004" height="824" transform="rotate(90 2063 405)" fill="#323542"/>
<rect x="439" y="405" width="1.00004" height="824" transform="rotate(90 439 405)" fill="#323542"/>
<rect x="2063" y="456" width="1.00004" height="824" transform="rotate(90 2063 456)" fill="#323542"/>
<rect x="439" y="456" width="1.00004" height="824" transform="rotate(90 439 456)" fill="#323542"/>
<rect x="2063" y="456" width="1.00004" height="824" transform="rotate(90 2063 456)" fill="#323542"/>
<rect x="439" y="456" width="1.00004" height="824" transform="rotate(90 439 456)" fill="#323542"/>
<rect x="2063" y="506" width="1.00004" height="824" transform="rotate(90 2063 506)" fill="#323542"/>
<rect x="439" y="506" width="1.00004" height="824" transform="rotate(90 439 506)" fill="#323542"/>
<rect x="2063" y="582" width="1.00004" height="824" transform="rotate(90 2063 582)" fill="#323542"/>
<rect x="439" y="582" width="1.00004" height="824" transform="rotate(90 439 582)" fill="#323542"/>
<rect x="2063" y="126" width="1.00004" height="824" transform="rotate(90 2063 126)" fill="#323542"/>
<rect x="439" y="126" width="1.00004" height="824" transform="rotate(90 439 126)" fill="#323542"/>
<rect x="2063" y="176" width="1.00004" height="824" transform="rotate(90 2063 176)" fill="#323542"/>
<rect x="439" y="176" width="1.00004" height="824" transform="rotate(90 439 176)" fill="#323542"/>
<rect x="2063" y="228" width="1.00004" height="824" transform="rotate(90 2063 228)" fill="#323542"/>
<rect x="439" y="228" width="1.00004" height="824" transform="rotate(90 439 228)" fill="#323542"/>
<rect x="2063" y="278" width="1.00004" height="824" transform="rotate(90 2063 278)" fill="#323542"/>
<rect x="439" y="278" width="1.00004" height="824" transform="rotate(90 439 278)" fill="#323542"/>
<rect x="2063" y="329" width="1.00004" height="824" transform="rotate(90 2063 329)" fill="#323542"/>
<rect x="439" y="329" width="1.00004" height="824" transform="rotate(90 439 329)" fill="#323542"/>
<rect x="2063" y="380" width="1.00004" height="824" transform="rotate(90 2063 380)" fill="#323542"/>
<rect x="439" y="380" width="1.00004" height="824" transform="rotate(90 439 380)" fill="#323542"/>
<rect x="2063" y="430" width="1.00004" height="824" transform="rotate(90 2063 430)" fill="#323542"/>
<rect x="439" y="430" width="1.00004" height="824" transform="rotate(90 439 430)" fill="#323542"/>
<rect x="2063" y="481" width="1.00004" height="824" transform="rotate(90 2063 481)" fill="#323542"/>
<rect x="439" y="481" width="1.00004" height="824" transform="rotate(90 439 481)" fill="#323542"/>
<rect x="2063" y="557" width="1.00004" height="824" transform="rotate(90 2063 557)" fill="#323542"/>
<rect x="439" y="557" width="1.00004" height="824" transform="rotate(90 439 557)" fill="#323542"/>
<rect x="2063" y="634" width="1.00004" height="824" transform="rotate(90 2063 634)" fill="#323542"/>
<rect x="439" y="634" width="1.00004" height="824" transform="rotate(90 439 634)" fill="#323542"/>
<rect x="2063" y="532" width="1.00004" height="824" transform="rotate(90 2063 532)" fill="#323542"/>
<rect x="439" y="532" width="1.00004" height="824" transform="rotate(90 439 532)" fill="#323542"/>
<rect x="2063" y="607" width="1.00004" height="824" transform="rotate(90 2063 607)" fill="#323542"/>
<rect x="439" y="607" width="1.00004" height="824" transform="rotate(90 439 607)" fill="#323542"/>
</g>
</g>
<defs>
<linearGradient id="paint0_linear_1709_8633" x1="864" y1="0" x2="864" y2="658" gradientUnits="userSpaceOnUse">
<stop stop-color="#121319" stop-opacity="0"/>
<stop offset="0.572917" stop-color="#121319"/>
<stop offset="1" stop-color="#121319" stop-opacity="0"/>
</linearGradient>
<linearGradient id="paint1_linear_1709_8633" x1="864.5" y1="-1" x2="864.5" y2="682" gradientUnits="userSpaceOnUse">
<stop offset="0.973958" stop-color="#514ED8"/>
<stop offset="1" stop-color="#514ED8" stop-opacity="0"/>
</linearGradient>
</defs>
</svg>
