<svg width="41" height="40" viewBox="0 0 41 40" fill="none" xmlns="http://www.w3.org/2000/svg">
<path d="M13.0003 6.6665C9.78366 6.6665 7.16699 9.28317 7.16699 12.4998C7.16699 15.7165 9.78366 18.3332 13.0003 18.3332C16.217 18.3332 18.8337 15.7165 18.8337 12.4998C18.8337 9.28317 16.217 6.6665 13.0003 6.6665ZM13.0003 14.9998C11.617 14.9998 10.5003 13.8832 10.5003 12.4998C10.5003 11.1165 11.617 9.99984 13.0003 9.99984C14.3837 9.99984 15.5003 11.1165 15.5003 12.4998C15.5003 13.8832 14.3837 14.9998 13.0003 14.9998ZM28.0003 21.6665C24.7837 21.6665 22.167 24.2832 22.167 27.4998C22.167 30.7165 24.7837 33.3332 28.0003 33.3332C31.217 33.3332 33.8337 30.7165 33.8337 27.4998C33.8337 24.2832 31.217 21.6665 28.0003 21.6665ZM28.0003 29.9998C26.617 29.9998 25.5003 28.8832 25.5003 27.4998C25.5003 26.1165 26.617 24.9998 28.0003 24.9998C29.3837 24.9998 30.5003 26.1165 30.5003 27.4998C30.5003 28.8832 29.3837 29.9998 28.0003 29.9998ZM32.6503 7.84984C33.3003 8.49984 33.3003 9.54984 32.6503 10.1998L10.7003 32.1498C10.546 32.3041 10.3628 32.4265 10.1612 32.51C9.95962 32.5936 9.74354 32.6365 9.52533 32.6365C9.30711 32.6365 9.09103 32.5936 8.88942 32.51C8.68781 32.4265 8.50463 32.3041 8.35033 32.1498C8.19602 31.9955 8.07362 31.8124 7.99011 31.6107C7.90661 31.4091 7.86362 31.1931 7.86362 30.9748C7.86362 30.7566 7.90661 30.5405 7.99011 30.3389C8.07362 30.1373 8.19602 29.9541 8.35033 29.7998L30.3003 7.84984C30.4545 7.69533 30.6377 7.57275 30.8393 7.48912C31.0409 7.40548 31.257 7.36243 31.4753 7.36243C31.6936 7.36243 31.9097 7.40548 32.1114 7.48912C32.313 7.57275 32.4961 7.69533 32.6503 7.84984Z" fill="url(#paint0_linear_10191_148059)"/>
<defs>
<linearGradient id="paint0_linear_10191_148059" x1="38.7455" y1="33.3924" x2="9.87814" y2="42.633" gradientUnits="userSpaceOnUse">
<stop stop-color="#957529"/>
<stop offset="1"/>
</linearGradient>
</defs>
</svg>
