<svg width="56" height="56" viewBox="0 0 56 56" fill="none" xmlns="http://www.w3.org/2000/svg">
<path d="M0.75 27.9268C0.75 12.92 12.9881 0.75 28 0.75C43.0119 0.75 55.25 12.92 55.25 27.9268C55.25 42.9335 43.0119 55.1036 28 55.1036C12.9881 55.1036 0.75 42.9335 0.75 27.9268Z" fill="white" stroke="white" stroke-width="1.5"/>
<path fill-rule="evenodd" clip-rule="evenodd" d="M32.3724 15.458C34.277 15.458 35.8986 16.6757 36.4995 18.3747H23.6224C21.6885 18.3747 19.8339 19.1429 18.4664 20.5104C17.099 21.8778 16.3307 23.7325 16.3307 25.6663V32.7101C15.4775 32.4082 14.7388 31.8492 14.2165 31.1101C13.6941 30.371 13.4138 29.4881 13.4141 28.583V19.833C13.4141 18.6727 13.875 17.5599 14.6955 16.7394C15.5159 15.9189 16.6287 15.458 17.7891 15.458H32.3724ZM38.2057 21.2913H23.6224C22.4621 21.2913 21.3493 21.7523 20.5288 22.5727C19.7083 23.3932 19.2474 24.506 19.2474 25.6663V34.4163C19.2474 35.5767 19.7083 36.6895 20.5288 37.5099C21.3493 38.3304 22.4621 38.7913 23.6224 38.7913H38.2057C39.3661 38.7913 40.4789 38.3304 41.2993 37.5099C42.1198 36.6895 42.5807 35.5767 42.5807 34.4163V25.6663C42.5807 24.506 42.1198 23.3932 41.2993 22.5727C40.4789 21.7523 39.3661 21.2913 38.2057 21.2913ZM33.8307 30.0413C33.8307 30.8149 33.5234 31.5568 32.9765 32.1037C32.4295 32.6507 31.6876 32.958 30.9141 32.958C30.1405 32.958 29.3987 32.6507 28.8517 32.1037C28.3047 31.5568 27.9974 30.8149 27.9974 30.0413C27.9974 29.2678 28.3047 28.5259 28.8517 27.9789C29.3987 27.432 30.1405 27.1247 30.9141 27.1247C31.6876 27.1247 32.4295 27.432 32.9765 27.9789C33.5234 28.5259 33.8307 29.2678 33.8307 30.0413Z" fill="#5E5EAA"/>
</svg>
