<svg width="56" height="56" viewBox="0 0 56 56" fill="none" xmlns="http://www.w3.org/2000/svg">
<path d="M0 27.9268C0 12.5033 12.5765 0 28 0C43.4235 0 56 12.5033 56 27.9268C56 43.3503 43.4235 55.8536 28 55.8536C12.5765 55.8536 0 43.3503 0 27.9268Z" fill="white"/>
<path d="M24.4996 18.375C24.0355 18.375 23.5904 18.5594 23.2622 18.8876C22.934 19.2158 22.7496 19.6609 22.7496 20.125C22.7496 20.5891 22.934 21.0343 23.2622 21.3625C23.5904 21.6906 24.0355 21.875 24.4996 21.875H34.2751L32.0124 24.1378C31.6936 24.4678 31.5172 24.9099 31.5212 25.3687C31.5252 25.8276 31.7092 26.2665 32.0337 26.591C32.3581 26.9154 32.7971 27.0995 33.2559 27.1034C33.7148 27.1074 34.1568 26.931 34.4869 26.6123L39.7369 21.3623C40.0649 21.0341 40.2492 20.5891 40.2492 20.125C40.2492 19.661 40.0649 19.2159 39.7369 18.8878L34.4869 13.6378C34.3254 13.4706 34.1323 13.3373 33.9188 13.2456C33.7053 13.1539 33.4757 13.1056 33.2433 13.1036C33.011 13.1016 32.7805 13.1458 32.5654 13.2338C32.3504 13.3218 32.155 13.4518 31.9907 13.6161C31.8264 13.7804 31.6964 13.9758 31.6084 14.1909C31.5204 14.4059 31.4762 14.6364 31.4782 14.8687C31.4802 15.1011 31.5285 15.3307 31.6202 15.5442C31.7119 15.7577 31.8452 15.9508 32.0124 16.1123L34.2751 18.375H24.4996Z" fill="#5E5EAA"/>
<path d="M31.4996 35.875C31.9638 35.875 32.4089 35.6906 32.7371 35.3625C33.0653 35.0343 33.2496 34.5891 33.2496 34.125C33.2496 33.6609 33.0653 33.2158 32.7371 32.8876C32.4089 32.5594 31.9638 32.375 31.4996 32.375H21.7241L23.9869 30.1123C24.154 29.9508 24.2873 29.7577 24.3791 29.5442C24.4708 29.3307 24.519 29.1011 24.5211 28.8687C24.5231 28.6364 24.4788 28.4059 24.3908 28.1909C24.3028 27.9758 24.1729 27.7804 24.0086 27.6161C23.8443 27.4518 23.6489 27.3218 23.4338 27.2338C23.2187 27.1458 22.9883 27.1016 22.7559 27.1036C22.5236 27.1056 22.2939 27.1539 22.0804 27.2456C21.8669 27.3373 21.6738 27.4706 21.5124 27.6378L16.2624 32.8878C15.9343 33.2159 15.75 33.661 15.75 34.125C15.75 34.5891 15.9343 35.0341 16.2624 35.3623L21.5124 40.6123C21.8424 40.931 22.2845 41.1074 22.7433 41.1034C23.2022 41.0995 23.6411 40.9154 23.9656 40.591C24.29 40.2665 24.4741 39.8276 24.4781 39.3687C24.482 38.9099 24.3057 38.4678 23.9869 38.1378L21.7241 35.875H31.4996Z" fill="#5E5EAA"/>
</svg>
