<svg width="56" height="56" viewBox="0 0 56 56" fill="none" xmlns="http://www.w3.org/2000/svg">
<path d="M0 27.9268C0 12.5033 12.5765 0 28 0C43.4235 0 56 12.5033 56 27.9268C56 43.3503 43.4235 55.8536 28 55.8536C12.5765 55.8536 0 43.3503 0 27.9268Z" fill="white"/>
<path d="M32.6693 32.9587V35.292H16.3359V32.9587C16.3359 32.9587 16.3359 28.292 24.5026 28.292C32.6693 28.292 32.6693 32.9587 32.6693 32.9587ZM28.5859 21.8754C28.5859 21.0678 28.3465 20.2783 27.8978 19.6068C27.4491 18.9353 26.8114 18.4119 26.0652 18.1029C25.3191 17.7938 24.4981 17.7129 23.706 17.8705C22.9139 18.0281 22.1863 18.417 21.6153 18.988C21.0442 19.5591 20.6553 20.2867 20.4977 21.0787C20.3402 21.8708 20.421 22.6919 20.7301 23.438C21.0392 24.1841 21.5625 24.8219 22.234 25.2705C22.9055 25.7192 23.695 25.9587 24.5026 25.9587C25.5856 25.9587 26.6242 25.5285 27.39 24.7627C28.1557 23.9969 28.5859 22.9583 28.5859 21.8754ZM32.5993 28.292C33.3165 28.8471 33.9033 29.5525 34.3186 30.3588C34.7338 31.165 34.9673 32.0525 35.0026 32.9587V35.292H39.6693V32.9587C39.6693 32.9587 39.6693 28.7237 32.5993 28.292ZM31.5026 17.792C30.6997 17.7883 29.9145 18.0283 29.2509 18.4804C29.9596 19.4706 30.3407 20.6577 30.3407 21.8754C30.3407 23.093 29.9596 24.2802 29.2509 25.2704C29.9145 25.7224 30.6997 25.9624 31.5026 25.9587C32.5856 25.9587 33.6242 25.5285 34.39 24.7627C35.1557 23.9969 35.5859 22.9583 35.5859 21.8754C35.5859 20.7924 35.1557 19.7538 34.39 18.988C33.6242 18.2222 32.5856 17.792 31.5026 17.792Z" fill="#5E5EAA"/>
</svg>
