<svg width="52" height="33" viewBox="0 0 52 33" fill="none" xmlns="http://www.w3.org/2000/svg">
<path fill-rule="evenodd" clip-rule="evenodd" d="M24.6863 7.03907H31.6884L32.6344 3.56299H12.3159L11.2426 7.80764H16.1908C18.2038 7.83107 19.5076 8.54718 20.102 9.95598H12.1886L11.2426 13.397H20.2112C19.6412 15.1321 16.6343 15.9996 14.3907 15.9996H11.2426L10.0974 19.0882L18.9022 28.9951H24.9237V28.7505L16.9739 19.7027C19.1569 19.2939 21.6968 18.6557 22.8611 17.6281C24.0253 16.6006 25.4807 15.1369 25.7597 13.397H31.6702L32.6344 9.95598H25.7778C25.6079 8.8497 25.2441 7.8774 24.6863 7.03907ZM35.6563 21.5114H31.3543C31.2951 21.5114 31.237 21.4948 31.1866 21.4634C31.1361 21.432 31.0953 21.387 31.0686 21.3335C31.0419 21.28 31.0304 21.2201 31.0355 21.1604C31.0405 21.1007 31.0618 21.0435 31.097 20.9953L37.9639 11.561C37.9685 11.553 37.9751 11.5463 37.983 11.5415C37.9908 11.5367 37.9997 11.534 38.0089 11.5335C38.0196 11.5337 38.0301 11.5363 38.0397 11.541C38.0467 11.5432 38.0532 11.5468 38.0588 11.5515C38.0644 11.5563 38.069 11.5622 38.0723 11.5688C38.0757 11.5754 38.0776 11.5826 38.0782 11.59C38.0787 11.5973 38.0778 11.6048 38.0754 11.6118L36.5877 18.6397C36.5781 18.6852 36.5786 18.7323 36.5893 18.7775C36.5999 18.8227 36.6205 18.865 36.6494 18.9012C36.6783 18.9374 36.7148 18.9665 36.7563 18.9866C36.7978 19.0066 36.8432 19.017 36.8891 19.017H41.1911C41.2504 19.0169 41.3086 19.0335 41.3591 19.0649C41.4095 19.0964 41.4504 19.1414 41.4771 19.1949C41.5038 19.2485 41.5153 19.3085 41.5102 19.3682C41.5052 19.428 41.4838 19.4851 41.4485 19.5333L34.5813 28.9671C34.5778 28.9736 34.573 28.9793 34.5672 28.9838C34.5615 28.9884 34.5548 28.9917 34.5478 28.9935C34.5407 28.9954 34.5333 28.9958 34.5261 28.9947C34.5189 28.9936 34.512 28.9909 34.5058 28.987C34.4988 28.9848 34.4923 28.9813 34.4867 28.9765C34.4811 28.9717 34.4765 28.9659 34.4731 28.9593C34.4698 28.9527 34.4678 28.9455 34.4673 28.9381C34.4667 28.9307 34.4677 28.9233 34.47 28.9162L35.9577 21.8883C35.9673 21.8429 35.9668 21.7958 35.9561 21.7506C35.9454 21.7054 35.9249 21.6632 35.896 21.6271C35.8671 21.5909 35.8305 21.5618 35.7891 21.5418C35.7476 21.5217 35.7023 21.5114 35.6563 21.5114Z" fill="url(#paint0_linear_10191_144497)"/>
<defs>
<linearGradient id="paint0_linear_10191_144497" x1="47.2976" y1="29.0516" x2="14.8755" y2="41.8712" gradientUnits="userSpaceOnUse">
<stop stop-color="#957529"/>
<stop offset="1"/>
</linearGradient>
</defs>
</svg>
