<svg width="96" height="96" viewBox="0 0 96 96" fill="none" xmlns="http://www.w3.org/2000/svg">
<path d="M48.691 53.741L49.4974 57.1586H46.3774L47.1934 53.7122C46.675 53.4434 46.3198 52.8962 46.3198 52.2626C46.3198 51.3506 47.059 50.6115 47.971 50.6115C48.883 50.6115 49.6126 51.3506 49.6126 52.2626C49.6126 52.9154 49.2382 53.4818 48.691 53.741Z" fill="#F4F4F6"/>
<path d="M77.2319 21.1491C63.9935 18.9987 49.4015 10.4259 49.2575 10.3395L48.0095 9.60034L46.7615 10.3395C46.6175 10.4259 32.0255 18.9987 18.7871 21.1491L16.7327 21.4851V43.7187C16.7327 49.9875 18.1919 56.2851 20.9567 61.9011C23.7215 67.5363 27.8015 72.5379 32.7551 76.3779C36.7871 79.4787 41.5007 82.6083 46.7807 85.6803L48.0095 86.4003L49.2383 85.6803C54.5183 82.6083 59.2319 79.4787 63.2639 76.3779C68.2271 72.5379 72.3071 67.5363 75.0719 61.9011C77.8271 56.2851 79.2767 49.9875 79.2767 43.7187V21.4851L77.2319 21.1491ZM59.3087 60.0003C59.3087 61.2483 58.3967 62.2563 57.2831 62.2563H38.7071C37.5839 62.2563 36.6815 61.2483 36.6815 60.0003V47.6451C36.6815 46.3971 37.5839 45.3987 38.7071 45.3987H40.4351V41.4819C40.4351 37.2099 43.7951 33.7347 47.9327 33.7347H48.0575C52.2047 33.7347 55.5647 37.2099 55.5647 41.4819V45.3987H57.2831C58.3967 45.3987 59.3087 46.3971 59.3087 47.6451V60.0003Z" fill="#F4F4F6"/>
<path d="M52.6269 41.4819V45.3987H43.3821V41.4819C43.3821 38.8323 45.4269 36.6819 47.9421 36.6819H48.0669C50.5821 36.6819 52.6269 38.8323 52.6269 41.4819Z" fill="#F4F4F6"/>
</svg>
