<svg width="35" height="34" viewBox="0 0 35 34" fill="none" xmlns="http://www.w3.org/2000/svg">
<g clip-path="url(#clip0_10191_148056)">
<path d="M10.8337 2.32263C9.55301 2.32237 8.31153 2.76461 7.3194 3.57451C6.32728 4.38441 5.64544 5.51223 5.3893 6.76708H0.83374V8.9893H5.3893C5.64431 10.2452 6.32566 11.3743 7.3179 12.1853C8.31013 12.9963 9.55223 13.4393 10.8337 13.4393C12.1152 13.4393 13.3573 12.9963 14.3496 12.1853C15.3418 11.3743 16.0232 10.2452 16.2782 8.9893H34.1671V6.76708H16.2782C16.022 5.51223 15.3402 4.38441 14.3481 3.57451C13.3559 2.76461 12.1145 2.32237 10.8337 2.32263ZM24.1671 20.1004C22.8863 20.1001 21.6449 20.5424 20.6527 21.3523C19.6606 22.1622 18.9788 23.29 18.7226 24.5449H0.83374V26.7671H18.7226C18.9776 28.023 19.659 29.152 20.6512 29.9631C21.6435 30.7741 22.8856 31.2171 24.1671 31.2171C25.4486 31.2171 26.6907 30.7741 27.6829 29.9631C28.6752 29.152 29.3565 28.023 29.6115 26.7671H34.1671V24.5449H29.6115C29.3554 23.29 28.6735 22.1622 27.6814 21.3523C26.6893 20.5424 25.4478 20.1001 24.1671 20.1004Z" fill="url(#paint0_linear_10191_148056)"/>
</g>
<defs>
<linearGradient id="paint0_linear_10191_148056" x1="40.3069" y1="31.2812" x2="5.29918" y2="44.209" gradientUnits="userSpaceOnUse">
<stop stop-color="#957529"/>
<stop offset="1"/>
</linearGradient>
<clipPath id="clip0_10191_148056">
<rect width="33.3333" height="33.3333" fill="white" transform="translate(0.83374 0.100098)"/>
</clipPath>
</defs>
</svg>
